####
#
# OBJ File Generated by Meshlab
#
####
# Object cup_0071.obj
#
# Vertices: 96
# Faces: 188
#
####
vn 0.063736 0.809657 0.583433
v -0.051860 0.500000 -0.474620
vn -0.099127 0.759430 0.642993
v 0.037770 -0.474170 -0.244990
vn -0.089412 0.809657 0.580053
v 0.072750 0.500000 -0.471870
vn 0.070677 0.759469 0.646693
v -0.026930 -0.474170 -0.246410
vn 0.235617 0.759444 0.606407
v -0.089790 -0.474170 -0.231050
vn 0.212580 0.809676 0.547024
v -0.172940 0.500000 -0.445030
vn -0.292259 0.590800 -0.752024
v -0.182620 0.500000 -0.469960
vn -0.476927 0.590821 -0.650747
v -0.298030 0.500000 -0.406670
vn 0.346948 0.809651 0.473383
v -0.282220 0.500000 -0.385100
vn -0.629092 0.590808 -0.505162
v -0.393130 0.500000 -0.315680
vn 0.457614 0.809656 0.367486
v -0.372280 0.500000 -0.298930
vn -0.738406 0.590809 -0.325116
v -0.461440 0.500000 -0.203170
vn 0.537115 0.809675 0.236502
v -0.436970 0.500000 -0.192400
vn -0.797385 0.590815 -0.122945
v -0.498300 0.500000 -0.076820
vn 0.580054 0.809656 0.089409
v -0.471870 0.500000 -0.072750
vn 0.583431 0.809658 -0.063735
v -0.474620 0.500000 0.051860
vn -0.802044 0.590803 0.087615
v -0.501210 0.500000 0.054770
vn 0.547024 0.809676 -0.212580
v -0.445030 0.500000 0.172940
vn -0.752025 0.590799 0.292258
v -0.469960 0.500000 0.182620
vn 0.473383 0.809651 -0.346948
v -0.385100 0.500000 0.282220
vn -0.650747 0.590821 0.476927
v -0.406670 0.500000 0.298030
vn 0.367488 0.809655 -0.457615
v -0.298930 0.500000 0.372280
vn -0.505163 0.590808 0.629092
v -0.315680 0.500000 0.393130
vn 0.236499 0.809676 -0.537116
v -0.192400 0.500000 0.436970
vn -0.325116 0.590809 0.738406
v -0.203170 0.500000 0.461440
vn 0.089411 0.809658 -0.580052
v -0.072750 0.500000 0.471870
vn -0.122945 0.590815 0.797385
v -0.076820 0.500000 0.498300
vn -0.063735 0.809658 -0.583431
v 0.051860 0.500000 0.474620
vn 0.292259 0.590800 0.752024
v 0.182620 0.500000 0.469960
vn 0.087614 0.590804 0.802044
v 0.054770 0.500000 0.501210
vn 0.070621 -0.759454 0.646717
v 0.029170 -0.500000 0.266950
vn -0.099134 -0.759455 0.642962
v -0.040920 -0.500000 0.265400
vn -0.262128 -0.759455 0.595414
v -0.108210 -0.500000 0.245770
vn -0.407326 -0.759439 0.507285
v -0.168140 -0.500000 0.209390
vn -0.524724 -0.759457 0.384565
v -0.216600 -0.500000 0.158740
vn -0.606409 -0.759434 0.235644
v -0.250310 -0.500000 0.097270
vn -0.646718 -0.759452 0.070623
v -0.266950 -0.500000 0.029170
vn -0.642962 -0.759455 -0.099134
v -0.265400 -0.500000 -0.040920
vn -0.595414 -0.759455 -0.262128
v -0.245770 -0.500000 -0.108210
vn -0.507285 -0.759439 -0.407326
v -0.209390 -0.500000 -0.168140
vn -0.384564 -0.759457 -0.524724
v -0.158740 -0.500000 -0.216600
vn -0.235646 -0.759435 -0.606407
v -0.097270 -0.500000 -0.250310
vn -0.087614 0.590804 -0.802044
v -0.054770 0.500000 -0.501210
vn -0.070621 -0.759454 -0.646717
v -0.029170 -0.500000 -0.266950
vn 0.099134 -0.759455 -0.642962
v 0.040920 -0.500000 -0.265400
vn 0.122945 0.590815 -0.797385
v 0.076820 0.500000 -0.498300
vn 0.325116 0.590809 -0.738407
v 0.203170 0.500000 -0.461440
vn -0.236499 0.809676 0.537116
v 0.192400 0.500000 -0.436970
vn 0.505163 0.590808 -0.629092
v 0.315680 0.500000 -0.393130
vn -0.367488 0.809655 0.457615
v 0.298930 0.500000 -0.372280
vn 0.650747 0.590821 -0.476927
v 0.406670 0.500000 -0.298030
vn -0.473383 0.809651 0.346948
v 0.385100 0.500000 -0.282220
vn 0.752025 0.590799 -0.292258
v 0.469960 0.500000 -0.182620
vn -0.547024 0.809676 0.212580
v 0.445030 0.500000 -0.172940
vn 0.802044 0.590803 -0.087616
v 0.501210 0.500000 -0.054770
vn -0.583431 0.809658 0.063735
v 0.474620 0.500000 -0.051860
vn -0.580054 0.809656 -0.089409
v 0.471870 0.500000 0.072750
vn 0.797385 0.590815 0.122945
v 0.498300 0.500000 0.076820
vn -0.537115 0.809675 -0.236502
v 0.436970 0.500000 0.192400
vn 0.738407 0.590809 0.325116
v 0.461440 0.500000 0.203170
vn -0.457614 0.809656 -0.367486
v 0.372280 0.500000 0.298930
vn 0.629092 0.590808 0.505162
v 0.393130 0.500000 0.315680
vn -0.346948 0.809651 -0.473383
v 0.282220 0.500000 0.385100
vn 0.476927 0.590821 0.650747
v 0.298030 0.500000 0.406670
vn -0.212580 0.809675 -0.547024
v 0.172940 0.500000 0.445030
vn -0.235617 0.759444 -0.606407
v 0.089790 -0.474170 0.231050
vn -0.070674 0.759466 -0.646696
v 0.026930 -0.474170 0.246410
vn 0.099124 0.759428 -0.642996
v -0.037770 -0.474170 0.244990
vn 0.262176 0.759461 -0.595385
v -0.099890 -0.474170 0.226860
vn -0.384591 0.759439 -0.524731
v 0.146530 -0.474170 0.199940
vn -0.507285 0.759454 -0.407298
v 0.193280 -0.474170 0.155200
vn -0.595380 0.759462 -0.262182
v 0.226860 -0.474170 0.099890
vn -0.642993 0.759431 -0.099119
v 0.244990 -0.474170 0.037770
vn -0.646696 0.759466 0.070674
v 0.246410 -0.474170 -0.026930
vn -0.606407 0.759444 0.235617
v 0.231050 -0.474170 -0.089790
vn -0.524731 0.759439 0.384591
v 0.199940 -0.474170 -0.146530
vn -0.407299 0.759456 0.507282
v 0.155200 -0.474170 -0.193280
vn -0.262176 0.759461 0.595384
v 0.099890 -0.474170 -0.226860
vn 0.384591 0.759439 0.524731
v -0.146530 -0.474170 -0.199940
vn 0.507285 0.759454 0.407298
v -0.193280 -0.474170 -0.155200
vn 0.595380 0.759462 0.262182
v -0.226860 -0.474170 -0.099890
vn 0.642993 0.759431 0.099119
v -0.244990 -0.474170 -0.037770
vn 0.646696 0.759466 -0.070674
v -0.246410 -0.474170 0.026930
vn 0.606407 0.759444 -0.235617
v -0.231050 -0.474170 0.089790
vn 0.524731 0.759439 -0.384591
v -0.199940 -0.474170 0.146530
vn 0.407299 0.759456 -0.507282
v -0.155200 -0.474170 0.193280
vn 0.384564 -0.759457 0.524725
v 0.158740 -0.500000 0.216600
vn 0.235646 -0.759435 0.606407
v 0.097270 -0.500000 0.250310
vn 0.507285 -0.759439 0.407326
v 0.209390 -0.500000 0.168140
vn 0.595414 -0.759455 0.262128
v 0.245770 -0.500000 0.108210
vn 0.642962 -0.759455 0.099134
v 0.265400 -0.500000 0.040920
vn 0.646718 -0.759452 -0.070623
v 0.266950 -0.500000 -0.029170
vn 0.606409 -0.759434 -0.235644
v 0.250310 -0.500000 -0.097270
vn 0.524724 -0.759457 -0.384564
v 0.216600 -0.500000 -0.158740
vn 0.407326 -0.759439 -0.507285
v 0.168140 -0.500000 -0.209390
vn 0.262128 -0.759455 -0.595413
v 0.108210 -0.500000 -0.245770
# 96 vertices, 0 vertices normals

f 1//1 2//2 3//3
f 2//2 1//1 4//4
f 1//1 5//5 4//4
f 5//5 1//1 6//6
f 7//7 6//6 1//1
f 8//8 6//6 7//7
f 8//8 9//9 6//6
f 10//10 9//9 8//8
f 10//10 11//11 9//9
f 12//12 11//11 10//10
f 12//12 13//13 11//11
f 14//14 13//13 12//12
f 14//14 15//15 13//13
f 14//14 16//16 15//15
f 17//17 16//16 14//14
f 17//17 18//18 16//16
f 19//19 18//18 17//17
f 19//19 20//20 18//18
f 21//21 20//20 19//19
f 21//21 22//22 20//20
f 23//23 22//22 21//21
f 23//23 24//24 22//22
f 25//25 24//24 23//23
f 25//25 26//26 24//24
f 27//27 26//26 25//25
f 26//26 27//27 28//28
f 27//27 29//29 28//28
f 29//29 27//27 30//30
f 27//27 31//31 30//30
f 31//31 27//27 32//32
f 27//27 33//33 32//32
f 33//33 27//27 25//25
f 25//25 34//34 33//33
f 34//34 25//25 23//23
f 23//23 35//35 34//34
f 35//35 23//23 21//21
f 21//21 36//36 35//35
f 36//36 21//21 19//19
f 19//19 37//37 36//36
f 37//37 19//19 17//17
f 17//17 38//38 37//37
f 38//38 17//17 14//14
f 14//14 39//39 38//38
f 39//39 14//14 12//12
f 12//12 40//40 39//39
f 40//40 12//12 10//10
f 8//8 40//40 10//10
f 40//40 8//8 41//41
f 7//7 41//41 8//8
f 41//41 7//7 42//42
f 43//43 42//42 7//7
f 42//42 43//43 44//44
f 43//43 45//45 44//44
f 45//45 43//43 46//46
f 43//43 1//1 46//46
f 7//7 1//1 43//43
f 3//3 46//46 1//1
f 3//3 47//47 46//46
f 48//48 47//47 3//3
f 48//48 49//49 47//47
f 50//50 49//49 48//48
f 50//50 51//51 49//49
f 52//52 51//51 50//50
f 52//52 53//53 51//51
f 54//54 53//53 52//52
f 54//54 55//55 53//53
f 56//56 55//55 54//54
f 57//57 55//55 56//56
f 57//57 58//58 55//55
f 59//59 58//58 57//57
f 59//59 60//60 58//58
f 61//61 60//60 59//59
f 61//61 62//62 60//60
f 63//63 62//62 61//61
f 63//63 64//64 62//62
f 65//65 64//64 63//63
f 65//65 29//29 64//64
f 28//28 29//29 65//65
f 66//66 28//28 65//65
f 28//28 66//66 67//67
f 66//66 68//68 67//67
f 68//68 66//66 69//69
f 69//69 66//66 70//70
f 65//65 70//70 66//66
f 70//70 65//65 63//63
f 63//63 71//71 70//70
f 71//71 63//63 61//61
f 61//61 72//72 71//71
f 72//72 61//61 59//59
f 59//59 73//73 72//72
f 73//73 59//59 57//57
f 57//57 74//74 73//73
f 74//74 57//57 56//56
f 56//56 75//75 74//74
f 75//75 56//56 54//54
f 54//54 76//76 75//75
f 76//76 54//54 52//52
f 52//52 77//77 76//76
f 77//77 52//52 50//50
f 48//48 77//77 50//50
f 77//77 48//48 78//78
f 3//3 78//78 48//48
f 78//78 3//3 2//2
f 5//5 78//78 2//2
f 79//79 78//78 5//5
f 79//79 77//77 78//78
f 80//80 77//77 79//79
f 80//80 76//76 77//77
f 81//81 76//76 80//80
f 81//81 75//75 76//76
f 82//82 75//75 81//81
f 82//82 74//74 75//75
f 83//83 74//74 82//82
f 83//83 73//73 74//74
f 84//84 73//73 83//83
f 84//84 72//72 73//73
f 85//85 72//72 84//84
f 85//85 71//71 72//72
f 86//86 71//71 85//85
f 86//86 70//70 71//71
f 69//69 70//70 86//86
f 86//86 24//24 69//69
f 24//24 86//86 22//22
f 86//86 20//20 22//22
f 20//20 86//86 85//85
f 85//85 18//18 20//20
f 18//18 85//85 84//84
f 84//84 16//16 18//18
f 16//16 84//84 83//83
f 83//83 15//15 16//16
f 15//15 83//83 82//82
f 82//82 13//13 15//15
f 13//13 82//82 81//81
f 81//81 11//11 13//13
f 11//11 81//81 80//80
f 80//80 9//9 11//11
f 9//9 80//80 79//79
f 79//79 6//6 9//9
f 6//6 79//79 5//5
f 26//26 69//69 24//24
f 69//69 26//26 68//68
f 26//26 67//67 68//68
f 67//67 26//26 28//28
f 5//5 2//2 4//4
f 29//29 87//87 64//64
f 87//87 29//29 88//88
f 30//30 88//88 29//29
f 88//88 30//30 31//31
f 32//32 88//88 31//31
f 88//88 32//32 33//33
f 88//88 33//33 87//87
f 87//87 33//33 34//34
f 87//87 34//34 89//89
f 89//89 34//34 35//35
f 89//89 35//35 90//90
f 90//90 35//35 36//36
f 90//90 36//36 91//91
f 91//91 36//36 37//37
f 91//91 37//37 92//92
f 92//92 37//37 38//38
f 92//92 38//38 93//93
f 93//93 38//38 39//39
f 93//93 39//39 94//94
f 94//94 39//39 40//40
f 94//94 40//40 95//95
f 95//95 40//40 41//41
f 95//95 41//41 96//96
f 96//96 41//41 42//42
f 96//96 42//42 45//45
f 45//45 42//42 44//44
f 46//46 96//96 45//45
f 96//96 46//46 47//47
f 47//47 95//95 96//96
f 95//95 47//47 49//49
f 49//49 94//94 95//95
f 94//94 49//49 51//51
f 51//51 93//93 94//94
f 93//93 51//51 53//53
f 53//53 92//92 93//93
f 92//92 53//53 55//55
f 55//55 91//91 92//92
f 91//91 55//55 58//58
f 58//58 90//90 91//91
f 90//90 58//58 60//60
f 60//60 89//89 90//90
f 89//89 60//60 62//62
f 64//64 89//89 62//62
f 89//89 64//64 87//87
# 188 faces, 0 coords texture

# End of File
