####
#
# OBJ File Generated by Meshlab
#
####
# Object cup_0072.obj
#
# Vertices: 169
# Faces: 238
#
####
vn -0.130484 -0.008839 0.991411
v 0.034919 -0.435206 -0.273494
vn 0.095871 0.672340 0.734008
v -0.034950 -0.468156 -0.273781
vn -0.095798 0.672320 0.734035
v 0.034919 -0.468156 -0.273787
vn 0.130585 -0.008864 0.991398
v -0.034950 -0.435206 -0.273487
vn -0.793323 -0.005440 0.608777
v 0.212312 -0.436125 -0.171087
vn -0.923854 -0.003484 0.382729
v 0.247250 -0.436669 -0.110587
vn -0.678347 0.676310 0.287142
v 0.247250 -0.469625 -0.110887
vn -0.582405 0.674931 0.453069
v 0.212312 -0.469081 -0.171381
vn -0.608716 -0.007072 0.793357
v 0.162912 -0.435681 -0.220487
vn -0.446968 0.673603 0.588625
v 0.162912 -0.468631 -0.220781
vn -0.382627 -0.008362 0.923865
v 0.102400 -0.435369 -0.255412
vn -0.280957 0.672707 0.684491
v 0.102400 -0.468319 -0.255712
vn -0.582526 0.682907 -0.440796
v 0.212331 -0.472006 0.154444
vn -0.678373 0.681366 -0.274863
v 0.247262 -0.471462 0.093944
vn -0.727971 0.679716 -0.089685
v 0.265344 -0.470856 0.026456
vn -0.727936 0.678019 0.101982
v 0.265337 -0.470231 -0.043406
vn -0.991435 -0.001189 0.130593
v 0.265337 -0.437275 -0.043106
vn -0.991452 0.001181 -0.130469
v 0.265344 -0.437906 0.026756
vn -0.923893 0.003411 -0.382637
v 0.247262 -0.438513 0.094238
vn -0.793396 0.005528 -0.608680
v 0.212331 -0.439056 0.154744
vn -0.608811 0.007223 -0.793283
v 0.162937 -0.439500 0.204150
vn -0.447016 0.684104 -0.576349
v 0.162937 -0.472450 0.203850
vn -0.281035 0.684919 -0.672239
v 0.102431 -0.472762 0.238788
vn 0.281049 0.672716 0.684445
v -0.102431 -0.468319 -0.255700
vn 0.382752 -0.008388 0.923813
v -0.102431 -0.435369 -0.255400
vn 0.000001 -0.999960 -0.008990
v 0.033525 -0.435300 -0.262925
vn -0.000000 -0.999960 -0.008992
v -0.033556 -0.435300 -0.262919
vn 0.000013 -0.999960 -0.008996
v 0.156444 -0.439425 0.195694
vn 0.000035 -0.999960 -0.008999
v 0.203875 -0.438994 0.148256
vn 0.000001 -0.999960 -0.008985
v 0.098325 -0.435456 -0.245569
vn -0.000056 -0.999960 -0.008970
v 0.237419 -0.438475 0.090163
vn 0.000037 -0.999959 -0.009009
v 0.156419 -0.435756 -0.212031
vn -0.000032 -0.999960 -0.008990
v 0.254775 -0.437894 0.025363
vn 0.000062 -0.999959 -0.009029
v 0.203856 -0.436181 -0.164600
vn 0.000073 -0.999959 -0.009032
v 0.254769 -0.437288 -0.041712
vn -0.000212 -0.999960 -0.008914
v 0.237406 -0.436706 -0.106506
vn -0.382749 0.008259 -0.923815
v 0.102431 -0.439813 0.239081
vn -0.130584 0.009000 -0.991396
v 0.034950 -0.439975 0.257169
vn -0.095868 0.685440 -0.721790
v 0.034950 -0.472925 0.256869
vn 0.446983 0.673620 0.588593
v -0.162937 -0.468631 -0.220762
vn 0.608771 -0.007091 0.793314
v -0.162937 -0.435681 -0.220469
vn -0.000010 -0.999960 -0.008988
v -0.098356 -0.435456 -0.245556
vn -0.000010 -0.999960 -0.008988
v 0.098350 -0.439725 0.229238
vn 0.130472 0.009027 -0.991411
v -0.034919 -0.439975 0.257175
vn 0.095787 0.685424 -0.721816
v -0.034919 -0.472925 0.256875
vn 0.582544 0.674826 0.453048
v -0.212337 -0.469081 -0.171362
vn 0.793420 -0.005541 0.608649
v -0.212337 -0.436125 -0.171062
vn -0.000024 -0.999960 -0.008985
v -0.156450 -0.435756 -0.212012
vn -0.000006 -0.999960 -0.008993
v -0.203881 -0.436181 -0.164575
vn -0.000002 -0.999960 -0.008995
v -0.033525 -0.439881 0.246606
vn -0.000000 -0.999960 -0.008992
v 0.033556 -0.439881 0.246600
vn 0.382634 0.008285 -0.923863
v -0.102406 -0.439813 0.239094
vn 0.280958 0.684904 -0.672287
v -0.102406 -0.472762 0.238800
vn 0.678380 0.676323 0.287033
v -0.247262 -0.469625 -0.110856
vn 0.923909 -0.003483 0.382597
v -0.247262 -0.436669 -0.110556
vn 0.000028 -0.999959 -0.009005
v -0.237419 -0.436706 -0.106481
vn 0.000009 -0.999960 -0.009000
v -0.098325 -0.439725 0.229250
vn 0.000006 -0.999960 -0.008996
v -0.156425 -0.439425 0.195713
vn -0.000122 -0.999960 -0.008948
v -0.203862 -0.438994 0.148281
vn 0.000133 -0.999959 -0.009006
v -0.237406 -0.438475 0.090188
vn 0.000205 -0.999959 -0.009036
v -0.254769 -0.437894 0.025394
vn -0.000029 -0.999960 -0.008987
v -0.254775 -0.437288 -0.041687
vn 0.991452 -0.001170 0.130469
v -0.265344 -0.437275 -0.043075
vn 0.991435 0.001164 -0.130593
v -0.265337 -0.437906 0.026788
vn 0.923867 0.003412 -0.382697
v -0.247250 -0.438513 0.094269
vn 0.608687 0.007205 -0.793378
v -0.162912 -0.439500 0.204169
vn 0.446909 0.684122 -0.576411
v -0.162912 -0.472450 0.203869
vn 0.727977 0.677990 0.101880
v -0.265344 -0.470231 -0.043369
vn 0.727998 0.679671 -0.089820
v -0.265337 -0.470856 0.026494
vn 0.678357 0.681365 -0.274907
v -0.247250 -0.471462 0.093975
vn 0.793342 0.005427 -0.608751
v -0.212319 -0.439056 0.154769
vn 0.582527 0.682835 -0.440907
v -0.212319 -0.472006 0.154475
vn -0.130305 0.043437 0.990522
v 0.034919 -0.435206 -0.273494
vn 0.130437 0.043436 0.990505
v -0.034950 -0.435206 -0.273487
vn -0.098073 -0.666168 0.739325
v 0.041125 0.472925 -0.312500
vn 0.098148 -0.666173 0.739311
v -0.041162 0.472925 -0.312494
vn -0.000017 0.009928 -0.999951
v -0.000019 0.472925 -0.312500
vn 0.085766 -0.747852 -0.658302
v 0.039262 0.472800 -0.298331
vn 0.251459 -0.748198 -0.613978
v 0.115137 0.472619 -0.278006
vn -0.287615 -0.665781 0.688486
v 0.120606 0.472738 -0.291206
vn 0.400124 -0.748873 -0.528289
v 0.183175 0.472263 -0.238738
vn -0.457479 -0.664998 0.590330
v 0.191869 0.472369 -0.250069
vn 0.521486 -0.749976 -0.406925
v 0.238725 0.471763 -0.183194
vn -0.596244 -0.663700 0.451659
v 0.250056 0.471844 -0.191894
vn 0.606905 -0.751670 -0.258183
v 0.278006 0.471156 -0.115169
vn -0.745191 -0.660445 0.092210
v 0.312506 0.470488 -0.041163
vn -0.694503 -0.662015 0.281784
v 0.291206 0.471200 -0.120638
vn -0.792248 0.046875 0.608397
v 0.212312 -0.436125 -0.171087
vn -0.922584 0.048905 0.382684
v 0.247250 -0.436669 -0.110587
vn -0.607881 0.045214 0.792740
v 0.162912 -0.435681 -0.220487
vn -0.382103 0.044041 0.923070
v 0.102400 -0.435369 -0.255412
vn -0.990076 0.051167 0.130891
v 0.265337 -0.437275 -0.043106
vn -0.990093 0.053509 -0.129821
v 0.265344 -0.437906 0.026756
vn -0.922625 0.055774 -0.381645
v 0.247262 -0.438513 0.094238
vn -0.792322 0.057801 -0.607359
v 0.212331 -0.439056 0.154744
vn -0.607984 0.059459 -0.791720
v 0.162937 -0.439500 0.204150
vn 0.382196 0.044045 0.923031
v -0.102431 -0.435369 -0.255400
vn 0.287684 -0.665774 0.688464
v -0.120644 0.472738 -0.291194
vn -0.085820 -0.747865 -0.658281
v -0.039294 0.472800 -0.298331
vn 0.130286 -0.039453 -0.990691
v 0.033525 -0.435300 -0.262925
vn -0.130422 -0.039454 -0.990673
v -0.033556 -0.435300 -0.262919
vn 0.608106 -0.055475 0.791915
v 0.156444 -0.439425 0.195694
vn 0.792445 -0.053816 0.607565
v 0.203875 -0.438994 0.148256
vn 0.382183 -0.040060 -0.923218
v 0.098325 -0.435456 -0.245569
vn 0.922815 -0.051786 0.381747
v 0.237419 -0.438475 0.090163
vn 0.608022 -0.041235 -0.792848
v 0.156419 -0.435756 -0.212031
vn 0.990298 -0.049524 0.129834
v 0.254775 -0.437894 0.025363
vn 0.792380 -0.042890 -0.608518
v 0.203856 -0.436181 -0.164600
vn 0.990279 -0.047181 -0.130851
v 0.254769 -0.437288 -0.041712
vn 0.922778 -0.044919 -0.382706
v 0.237406 -0.436706 -0.106506
vn 0.651681 -0.752819 -0.092607
v 0.298337 0.470469 -0.039294
vn -0.745279 -0.658596 -0.103973
v 0.312512 0.469750 0.041125
vn -0.694339 -0.657072 -0.293512
v 0.291219 0.469038 0.120600
vn -0.596419 -0.655346 -0.463472
v 0.250081 0.468394 0.191862
vn -0.457682 -0.654052 -0.602281
v 0.191900 0.467869 0.250050
vn -0.287691 -0.653267 -0.700340
v 0.120644 0.467500 0.291194
vn -0.382197 0.060631 -0.922090
v 0.102431 -0.439813 0.239081
vn -0.130437 0.061235 -0.989564
v 0.034950 -0.439975 0.257169
vn 0.607958 0.045217 0.792681
v -0.162937 -0.435681 -0.220469
vn 0.457563 -0.664990 0.590274
v -0.191900 0.472369 -0.250050
vn -0.400207 -0.748855 -0.528253
v -0.183200 0.472263 -0.238713
vn -0.251551 -0.748206 -0.613929
v -0.115175 0.472619 -0.277994
vn -0.382264 -0.040056 -0.923184
v -0.098356 -0.435456 -0.245556
vn 0.382275 -0.056646 0.922311
v 0.098350 -0.439725 0.229238
vn 0.400056 -0.758453 0.514494
v 0.183200 0.467975 0.238712
vn 0.251533 -0.759114 0.600398
v 0.115169 0.467619 0.277994
vn 0.521356 -0.757337 0.393230
v 0.238744 0.468475 0.183162
vn 0.607376 -0.755784 0.244713
v 0.278019 0.469081 0.115131
vn 0.651550 -0.754483 0.078983
v 0.298344 0.469769 0.039256
vn -0.098157 -0.652889 -0.751067
v 0.041162 0.467313 0.312494
vn 0.098072 -0.652881 -0.751085
v -0.041125 0.467313 0.312500
vn 0.130294 0.061235 -0.989583
v -0.034919 -0.439975 0.257175
vn 0.792328 0.046871 0.608292
v -0.212337 -0.436125 -0.171062
vn 0.596317 -0.663699 0.451563
v -0.250081 0.471844 -0.191863
vn -0.521517 -0.749979 -0.406880
v -0.238744 0.471763 -0.183169
vn -0.608105 -0.041229 -0.792785
v -0.156450 -0.435756 -0.212012
vn -0.792469 -0.042888 -0.608403
v -0.203881 -0.436181 -0.164575
vn -0.130283 -0.057253 0.989822
v -0.033525 -0.439881 0.246606
vn 0.130432 -0.057252 0.989803
v 0.033556 -0.439881 0.246600
vn 0.085819 -0.759451 0.644880
v 0.039294 0.467438 0.298325
vn -0.085735 -0.759458 0.644882
v -0.039262 0.467438 0.298331
vn -0.251465 -0.759109 0.600432
v -0.115144 0.467619 0.278006
vn 0.287614 -0.653275 -0.700364
v -0.120606 0.467500 0.291206
vn 0.382112 0.060628 -0.922125
v -0.102406 -0.439813 0.239094
vn 0.922639 0.048901 0.382553
v -0.247262 -0.436669 -0.110556
vn 0.694568 -0.661979 0.281708
v -0.291219 0.471200 -0.120600
vn -0.607077 -0.751532 -0.258179
v -0.278019 0.471156 -0.115138
vn -0.922826 -0.044916 -0.382589
v -0.237419 -0.436706 -0.106481
vn -0.382164 -0.056648 0.922357
v -0.098325 -0.439725 0.229250
vn -0.399988 -0.758458 0.514539
v -0.183175 0.467975 0.238737
vn -0.608004 -0.055476 0.791993
v -0.156425 -0.439425 0.195713
vn -0.521311 -0.757338 0.393287
v -0.238725 0.468475 0.183194
vn -0.792403 -0.053820 0.607619
v -0.203862 -0.438994 0.148281
vn -0.607325 -0.755791 0.244820
v -0.278006 0.469081 0.115169
vn -0.922793 -0.051794 0.381800
v -0.237406 -0.438475 0.090188
vn -0.651529 -0.754499 0.079002
v -0.298344 0.469769 0.039294
vn -0.990278 -0.049532 0.129983
v -0.254769 -0.437894 0.025394
vn -0.990296 -0.047184 -0.130717
v -0.254775 -0.437288 -0.041687
vn -0.651502 -0.752987 -0.092503
v -0.298344 0.470475 -0.039256
vn 0.745327 -0.660298 0.092161
v -0.312512 0.470488 -0.041125
vn 0.990093 0.051166 0.130761
v -0.265344 -0.437275 -0.043075
vn 0.745252 -0.658608 -0.104089
v -0.312506 0.469750 0.041156
vn 0.990075 0.053509 -0.129952
v -0.265337 -0.437906 0.026788
vn 0.922600 0.055774 -0.381706
v -0.247250 -0.438513 0.094269
vn 0.694322 -0.657077 -0.293541
v -0.291206 0.469038 0.120637
vn 0.596363 -0.655340 -0.463553
v -0.250062 0.468394 0.191894
vn 0.457590 -0.654053 -0.602350
v -0.191875 0.467869 0.250069
vn 0.607875 0.059459 -0.791803
v -0.162912 -0.439500 0.204169
vn 0.792252 0.057805 -0.607450
v -0.212319 -0.439056 0.154769
# 169 vertices, 0 vertices normals

f 1//1 2//2 3//3
f 2//2 1//1 4//4
f 5//5 7//7 6//6
f 7//7 5//5 8//8
f 9//9 8//8 5//5
f 8//8 9//9 10//10
f 11//11 10//10 9//9
f 10//10 11//11 12//12
f 11//11 3//3 12//12
f 3//3 11//11 1//1
f 13//13 12//12 3//3
f 14//14 12//12 13//13
f 14//14 10//10 12//12
f 15//15 10//10 14//14
f 15//15 8//8 10//10
f 16//16 8//8 15//15
f 8//8 16//16 7//7
f 16//16 6//6 7//7
f 6//6 16//16 17//17
f 15//15 17//17 16//16
f 17//17 15//15 18//18
f 14//14 18//18 15//15
f 18//18 14//14 19//19
f 14//14 20//20 19//19
f 20//20 14//14 13//13
f 13//13 21//21 20//20
f 21//21 13//13 22//22
f 13//13 3//3 22//22
f 22//22 3//3 2//2
f 22//22 2//2 23//23
f 23//23 2//2 24//24
f 4//4 24//24 2//2
f 24//24 4//4 25//25
f 26//26 28//28 27//27
f 26//26 29//29 28//28
f 30//30 29//29 26//26
f 30//30 31//31 29//29
f 32//32 31//31 30//30
f 32//32 33//33 31//31
f 34//34 33//33 32//32
f 34//34 35//35 33//33
f 35//35 34//34 36//36
f 22//22 37//37 21//21
f 37//37 22//22 23//23
f 23//23 38//38 37//37
f 38//38 23//23 39//39
f 23//23 24//24 39//39
f 39//39 24//24 40//40
f 25//25 40//40 24//24
f 40//40 25//25 41//41
f 27//27 43//43 42//42
f 27//27 28//28 43//43
f 39//39 44//44 38//38
f 44//44 39//39 45//45
f 39//39 40//40 45//45
f 45//45 40//40 46//46
f 41//41 46//46 40//40
f 46//46 41//41 47//47
f 48//48 50//50 49//49
f 48//48 51//51 50//50
f 42//42 51//51 48//48
f 42//42 43//43 51//51
f 45//45 52//52 44//44
f 52//52 45//45 53//53
f 45//45 46//46 53//53
f 53//53 46//46 54//54
f 47//47 54//54 46//46
f 54//54 47//47 55//55
f 49//49 57//57 56//56
f 49//49 50//50 57//57
f 56//56 58//58 62//62
f 56//56 57//57 58//58
f 62//62 58//58 59//59
f 62//62 59//59 61//61
f 61//61 59//59 60//60
f 52//52 67//67 66//66
f 67//67 52//52 53//53
f 53//53 54//54 67//67
f 67//67 54//54 68//68
f 54//54 63//63 68//68
f 63//63 54//54 55//55
f 64//64 68//68 63//63
f 68//68 64//64 69//69
f 65//65 69//69 64//64
f 69//69 65//65 70//70
f 71//71 70//70 65//65
f 70//70 71//71 72//72
f 66//66 72//72 71//71
f 72//72 66//66 67//67
f 67//67 68//68 72//72
f 72//72 68//68 69//69
f 72//72 69//69 70//70
f 75//75 74//74 73//73
f 74//74 75//75 76//76
f 76//76 75//75 77//77
f 75//75 78//78 77//77
f 75//75 79//79 78//78
f 80//80 79//79 75//75
f 80//80 81//81 79//79
f 82//82 81//81 80//80
f 82//82 83//83 81//81
f 84//84 83//83 82//82
f 84//84 85//85 83//83
f 84//84 86//86 85//85
f 86//86 84//84 87//87
f 88//88 87//87 84//84
f 87//87 88//88 89//89
f 80//80 73//73 91//91
f 73//73 80//80 75//75
f 91//91 82//82 80//80
f 82//82 91//91 90//90
f 90//90 84//84 82//82
f 84//84 90//90 88//88
f 76//76 97//97 74//74
f 97//97 76//76 98//98
f 76//76 99//99 98//98
f 77//77 99//99 76//76
f 77//77 78//78 99//99
f 100//100 99//99 78//78
f 99//99 100//100 101//101
f 108//108 85//85 110//110
f 85//85 108//108 83//83
f 106//106 83//83 108//108
f 83//83 106//106 81//81
f 104//104 81//81 106//106
f 81//81 104//104 79//79
f 104//104 78//78 79//79
f 78//78 104//104 100//100
f 85//85 109//109 110//110
f 109//109 85//85 111//111
f 86//86 111//111 85//85
f 111//111 86//86 112//112
f 86//86 93//93 112//112
f 93//93 86//86 92//92
f 87//87 92//92 86//86
f 92//92 87//87 89//89
f 94//94 112//112 93//93
f 112//112 94//94 113//113
f 94//94 114//114 113//113
f 114//114 94//94 95//95
f 95//95 115//115 114//114
f 115//115 95//95 96//96
f 96//96 116//116 115//115
f 116//116 96//96 117//117
f 98//98 119//119 97//97
f 119//119 98//98 120//120
f 98//98 121//121 120//120
f 98//98 122//122 121//121
f 98//98 99//99 122//122
f 101//101 122//122 99//99
f 122//122 101//101 123//123
f 125//125 124//124 102//102
f 124//124 125//125 126//126
f 125//125 116//116 126//126
f 125//125 115//115 116//116
f 127//127 115//115 125//125
f 127//127 114//114 115//115
f 128//128 114//114 127//127
f 128//128 113//113 114//114
f 129//129 113//113 128//128
f 129//129 112//112 113//113
f 111//111 112//112 129//129
f 107//107 111//111 129//129
f 111//111 107//107 109//109
f 129//129 105//105 107//107
f 105//105 129//129 128//128
f 128//128 103//103 105//105
f 103//103 128//128 127//127
f 127//127 102//102 103//103
f 102//102 127//127 125//125
f 126//126 116//116 130//130
f 117//117 130//130 116//116
f 130//130 117//117 118//118
f 118//118 131//131 130//130
f 131//131 118//118 132//132
f 120//120 133//133 119//119
f 133//133 120//120 134//134
f 120//120 135//135 134//134
f 120//120 121//121 135//135
f 136//136 135//135 121//121
f 135//135 136//136 137//137
f 126//126 139//139 124//124
f 139//139 126//126 140//140
f 126//126 130//130 140//140
f 140//140 130//130 141//141
f 141//141 130//130 131//131
f 141//141 131//131 142//142
f 142//142 131//131 143//143
f 132//132 143//143 131//131
f 143//143 132//132 144//144
f 134//134 145//145 133//133
f 145//145 134//134 146//146
f 134//134 147//147 146//146
f 134//134 135//135 147//147
f 137//137 147//147 135//135
f 147//147 137//137 148//148
f 141//141 149//149 138//138
f 149//149 141//141 142//142
f 150//150 149//149 142//142
f 149//149 150//150 151//151
f 152//152 151//151 150//150
f 151//151 152//152 153//153
f 154//154 153//153 152//152
f 153//153 154//154 155//155
f 156//156 155//155 154//154
f 155//155 156//156 157//157
f 156//156 158//158 157//157
f 158//158 156//156 159//159
f 160//160 159//159 156//156
f 146//146 159//159 160//160
f 146//146 147//147 159//159
f 148//148 159//159 147//147
f 159//159 148//148 158//158
f 160//160 145//145 146//146
f 145//145 160//160 161//161
f 162//162 161//161 160//160
f 161//161 162//162 163//163
f 162//162 164//164 163//163
f 164//164 162//162 165//165
f 154//154 165//165 162//162
f 154//154 166//166 165//165
f 152//152 166//166 154//154
f 152//152 167//167 166//166
f 150//150 167//167 152//152
f 150//150 143//143 167//167
f 142//142 143//143 150//150
f 144//144 167//167 143//143
f 167//167 144//144 168//168
f 166//166 168//168 169//169
f 168//168 166//166 167//167
f 169//169 165//165 166//166
f 165//165 169//169 164//164
f 162//162 156//156 154//154
f 160//160 156//156 162//162
f 138//138 140//140 141//141
f 140//140 138//138 139//139
f 121//121 123//123 136//136
f 123//123 121//121 122//122
# 238 faces, 0 coords texture

# End of File
