####
#
# OBJ File Generated by Meshlab
#
####
# Object cup_0055.obj
#
# Vertices: 165
# Faces: 236
#
####
vn -0.997933 0.062642 0.014343
v 0.199687 -0.446221 -0.026431
vn -0.662836 0.714322 0.224484
v 0.189433 -0.465430 -0.089048
vn -0.689800 0.723172 0.034615
v 0.198296 -0.468188 -0.027214
vn -0.977786 0.149416 0.146998
v 0.190815 -0.443456 -0.088265
vn 0.223884 0.690918 -0.687392
v -0.099585 -0.457725 0.208383
vn -0.667246 0.728476 -0.155258
v 0.190932 -0.469937 0.034828
vn -0.829573 -0.558324 -0.009125
v 0.416500 0.414176 -0.006297
vn -0.959772 0.238383 0.148363
v 0.199687 -0.446221 -0.026431
vn -0.906988 0.136978 0.398258
v 0.190815 -0.443456 -0.088265
vn -0.586971 0.703651 0.400426
v 0.164784 -0.461832 -0.146408
vn 0.401492 0.677167 -0.616644
v -0.157504 -0.453244 0.185334
vn 0.033484 0.703573 -0.709834
v -0.037593 -0.461907 0.215680
vn -0.957317 0.160777 -0.240198
v 0.192323 -0.447962 0.035611
vn -0.800635 -0.566154 0.196094
v 0.400965 0.418991 -0.113979
vn -0.963462 0.245354 -0.107432
v 0.199687 -0.446221 -0.026431
vn -0.939886 0.249257 -0.233419
v 0.403713 0.411135 0.101876
vn -0.848234 0.131613 0.513009
v 0.166175 -0.439857 -0.145625
vn 0.491522 0.101510 -0.864929
v -0.156113 -0.431269 0.186117
vn 0.118721 0.027559 -0.992545
v -0.098194 -0.435751 0.209158
vn -0.596365 0.730379 -0.333009
v 0.167791 -0.470537 0.092863
vn -0.957219 0.161128 -0.240354
v 0.192323 -0.447962 0.035611
vn -0.156146 0.714794 -0.681680
v 0.024182 -0.465489 0.206526
vn -0.769645 -0.638345 -0.012711
v 0.374234 0.416758 -0.003699
vn -0.746720 -0.633869 -0.201540
v 0.362880 0.414051 0.092571
vn -0.063129 -0.997374 -0.035504
v 0.403713 0.411135 0.101876
vn -0.468703 0.690617 0.550786
v 0.126233 -0.457650 -0.195372
vn 0.554146 0.663679 -0.502446
v -0.207417 -0.448754 0.148032
vn 0.370245 0.009308 -0.928888
v -0.098194 -0.435751 0.209158
vn 0.598067 -0.009305 -0.801392
v -0.206026 -0.426779 0.148815
vn 0.124375 0.123808 -0.984481
v -0.036202 -0.439941 0.216463
vn -0.926738 0.071808 -0.368783
v 0.169182 -0.448562 0.093646
vn -0.728000 -0.551423 -0.407368
v 0.363330 0.410086 0.203094
vn -0.137440 0.137920 -0.980861
v 0.025573 -0.443523 0.207300
vn -0.743045 -0.645897 0.175217
v 0.360389 0.421048 -0.099602
vn -0.719515 -0.576713 0.386911
v 0.358007 0.425271 -0.213989
vn -0.676260 -0.631995 -0.378490
v 0.326961 0.413118 0.182644
vn -0.659192 0.081196 0.747579
v 0.127624 -0.435676 -0.194589
vn 0.352614 -0.600780 -0.717445
v -0.203635 0.440232 0.364213
vn 0.375436 0.205179 -0.903853
v -0.098194 -0.435751 0.209158
vn 0.695944 0.186584 -0.693433
v -0.290750 0.448062 0.299214
vn 0.728062 0.116508 -0.675538
v -0.206026 -0.426779 0.148815
vn 0.159422 -0.588002 -0.792993
v -0.102709 0.432419 0.404355
vn 0.128747 0.218173 -0.967380
v -0.098194 -0.435751 0.209158
vn -0.137372 0.139025 -0.980714
v -0.036202 -0.439941 0.216463
vn -0.482052 0.728446 -0.486818
v 0.130498 -0.469962 0.143001
vn -0.834665 0.192739 -0.515933
v 0.169182 -0.448562 0.093646
vn -0.331432 0.723307 -0.605788
v 0.081451 -0.468238 0.181786
vn -0.386017 0.149445 -0.910306
v 0.082842 -0.446263 0.182569
vn -0.393502 0.057279 -0.917538
v 0.025573 -0.443523 0.207300
vn -0.932446 0.235353 0.274141
v 0.173372 -0.346536 -0.076636
vn -0.620380 0.783461 0.036295
v 0.181336 -0.348994 -0.021700
vn -0.757934 0.216682 0.615293
v 0.127624 -0.435676 -0.194589
vn -0.600648 0.787604 -0.137489
v 0.174830 -0.350551 0.033570
vn -0.315323 0.676945 0.665069
v 0.076186 -0.453152 -0.232665
vn 0.672849 0.650407 -0.352483
v -0.246043 -0.444572 0.099144
vn 0.834337 0.108123 -0.540547
v -0.244652 -0.422598 0.099927
vn 0.649935 -0.626036 -0.430887
v -0.357998 0.455351 0.213848
vn -0.046965 -0.575731 -0.816289
v 0.005281 0.425130 0.417058
vn -0.252458 -0.565625 -0.785069
v 0.112921 0.418882 0.401189
vn -0.790886 0.162016 -0.590127
v 0.131889 -0.447987 0.143784
vn -0.604399 -0.553102 -0.573393
v 0.298222 0.411102 0.290475
vn -0.562823 -0.633478 -0.530976
v 0.269017 0.414018 0.260371
vn -0.375288 0.239307 -0.895484
v 0.025573 -0.443523 0.207300
vn -0.442227 -0.557908 -0.702264
v 0.212823 0.414101 0.358015
vn -0.668610 -0.655915 0.350338
v 0.322288 0.426621 -0.188550
vn -0.352383 0.912325 0.208539
v 0.151456 -0.343338 -0.127682
vn -0.592063 -0.588625 0.550438
v 0.290750 0.432560 -0.299347
vn -0.535710 0.789457 -0.299620
v 0.154155 -0.351085 0.085258
vn -0.596914 0.008979 0.802255
v 0.077569 -0.431186 -0.231882
vn 0.137989 -0.666566 -0.732563
v -0.087840 0.432993 0.361780
vn -0.063095 -0.997375 -0.035518
v -0.290750 0.448062 0.299214
vn 0.469261 -0.691142 -0.549651
v -0.255140 0.446913 0.268226
vn -0.063035 -0.997380 -0.035485
v -0.315082 0.453410 0.192173
vn -0.051134 -0.655139 -0.753776
v 0.008338 0.426504 0.373009
vn -0.609098 0.157614 -0.777276
v 0.131889 -0.447987 0.143784
vn -0.609043 0.158085 -0.777223
v 0.082842 -0.446263 0.182569
vn -0.063138 -0.997375 -0.035442
v 0.262412 0.433118 -0.264536
vn 0.063073 0.997379 0.035442
v 0.173372 -0.346536 -0.076636
vn 0.209390 0.758446 -0.617184
v -0.083808 -0.339681 0.188033
vn 0.369284 0.747919 -0.551586
v -0.135312 -0.335691 0.167516
vn 0.037734 0.768760 -0.638423
v -0.028630 -0.343404 0.194422
vn -0.437717 0.130251 0.889628
v 0.077569 -0.431186 -0.231882
vn 0.063100 0.997376 0.035497
v 0.026306 -0.346595 0.186392
vn -0.137938 0.663197 0.735624
v 0.018268 -0.448670 -0.255714
vn 0.748173 0.639705 -0.176108
v -0.270617 -0.440974 0.041717
vn 0.961754 0.057434 -0.267826
v -0.269226 -0.418999 0.042500
vn 0.917475 -0.043993 -0.395352
v -0.244652 -0.422598 0.099927
vn 0.733058 -0.636576 -0.239577
v -0.400898 0.461624 0.113913
vn 0.209073 -0.897538 -0.388219
v -0.177637 0.439949 0.326069
vn 0.343446 -0.916536 -0.204954
v -0.353242 0.458983 0.103275
vn -0.063128 -0.997372 -0.035563
v 0.104067 0.420948 0.358981
vn -0.431722 0.787801 -0.439301
v 0.120952 -0.350568 0.129865
vn -0.416443 0.757820 0.502279
v 0.117128 -0.339606 -0.171281
vn -0.669824 0.211814 0.711667
v 0.262412 0.433118 -0.264536
vn -0.757902 0.216797 0.615292
v 0.151456 -0.343338 -0.127682
vn 0.506476 0.737046 -0.447487
v -0.179786 -0.331701 0.134371
vn -0.063101 -0.997375 -0.035515
v 0.184851 0.440082 -0.322321
vn -0.426265 -0.601640 0.675520
v 0.203643 0.440390 -0.364346
vn 0.062956 0.997392 0.035306
v 0.077344 -0.349035 0.164334
vn -0.239150 0.084433 0.967305
v 0.019659 -0.426696 -0.254931
vn 0.375375 0.205210 -0.903871
v -0.177637 0.439949 0.326069
vn 0.852637 0.174094 -0.492648
v -0.315082 0.453410 0.192173
vn 0.611676 0.727280 -0.311314
v -0.214106 -0.327977 0.090772
vn -0.252890 0.236579 -0.938124
v 0.104067 0.420948 0.358981
vn -0.414299 -0.637783 -0.649300
v 0.192989 0.416692 0.320505
vn -0.490412 0.244642 -0.836448
v 0.077344 -0.349035 0.164334
vn -0.277055 0.747320 0.603948
v 0.072663 -0.335616 -0.204427
vn -0.254863 0.236620 -0.937580
v 0.026306 -0.346595 0.186392
vn -0.464145 0.198307 0.863275
v 0.184851 0.440082 -0.322321
vn 0.052250 0.650297 0.757881
v -0.043666 -0.444489 -0.262945
vn 0.775490 0.631224 0.013103
v -0.279546 -0.438208 -0.020050
vn 0.998800 0.047622 -0.011396
v -0.278164 -0.416233 -0.019267
vn 0.987896 0.154999 -0.006112
v -0.416500 0.466447 0.006164
vn 0.692643 -0.720460 -0.034391
v -0.367095 0.463273 0.007380
vn 0.460002 0.876422 -0.142417
v -0.236022 -0.324770 0.039717
vn -0.222428 -0.691872 0.686905
v 0.094987 0.447038 -0.358098
vn -0.230321 0.185192 0.955330
v 0.021083 -0.331617 -0.225010
vn -0.233270 -0.614587 0.753570
v 0.102709 0.448204 -0.404496
vn -0.117769 -0.027926 0.992648
v -0.042275 -0.422523 -0.262162
vn -0.063171 -0.997371 -0.035515
v -0.416500 0.466447 0.006164
vn 0.978370 0.157212 -0.134449
v -0.236022 -0.324770 0.039717
vn 0.978389 0.157221 -0.134303
v -0.353242 0.458983 0.103275
vn 0.063127 0.997374 0.035507
v 0.021083 -0.331617 -0.225010
vn 0.024184 0.172741 0.984670
v -0.042275 -0.422523 -0.262162
vn 0.275501 0.056682 0.959628
v -0.103975 -0.418941 -0.253074
vn 0.143060 -0.044305 0.988722
v -0.042275 -0.422523 -0.262162
vn 0.753004 0.625933 0.202961
v -0.272191 -0.436467 -0.082092
vn 0.739499 -0.649953 0.175221
v -0.403638 0.469479 -0.101943
vn 0.670794 -0.724978 0.156339
v -0.355666 0.465980 -0.088814
vn 0.701823 0.712166 0.016239
v -0.243986 -0.322304 -0.015344
vn -0.032513 -0.703338 0.710111
v -0.001066 0.453518 -0.369319
vn 0.055122 0.726406 0.685052
v -0.034020 -0.327902 -0.231466
vn 0.027061 0.172566 0.984626
v -0.005281 0.455484 -0.417058
vn 0.241761 0.639316 0.729950
v -0.105366 -0.440907 -0.253857
vn 0.179803 -0.637163 0.749462
v -0.112855 0.461732 -0.401256
vn 0.967338 -0.069920 0.243656
v -0.270800 -0.414492 -0.081309
vn 0.981251 0.150274 0.120681
v -0.270800 -0.414492 -0.081309
vn 0.599315 -0.727191 0.334687
v -0.319814 0.466913 -0.178962
vn -0.063130 -0.997374 -0.035492
v -0.005281 0.455484 -0.417058
vn 0.510134 -0.062686 0.857808
v -0.161319 -0.416192 -0.228267
vn 0.397458 0.156161 0.904235
v -0.212823 0.466522 -0.358148
vn 0.682303 0.623702 0.381391
v -0.249117 -0.435859 -0.140202
vn 0.918832 0.146576 0.366419
v -0.270800 -0.414492 -0.081309
vn 0.662335 -0.651616 0.369742
v -0.363388 0.470537 -0.203169
vn 0.484388 -0.725432 0.488997
v -0.261870 0.466014 -0.256689
vn 0.681291 0.707815 0.186654
v -0.237488 -0.320755 -0.070472
vn 0.157148 -0.713048 0.683276
v -0.096853 0.459083 -0.355233
vn 0.217194 -0.923709 0.315575
v -0.185851 0.463348 -0.316815
vn 0.417263 0.631193 0.653825
v -0.162702 -0.438166 -0.229050
vn 0.510926 0.154235 0.845675
v -0.161319 -0.416192 -0.228267
vn 0.262011 -0.890983 0.370809
v -0.212823 0.466522 -0.358148
vn 0.928580 0.038589 0.369120
v -0.247726 -0.413884 -0.139419
vn 0.617377 0.706653 0.345669
v -0.216813 -0.320222 -0.122168
vn 0.224997 0.718351 0.658292
v -0.088964 -0.324720 -0.223302
vn 0.617374 -0.066962 0.783815
v -0.210366 -0.414467 -0.189482
vn 0.711462 0.149247 0.686693
v -0.298281 0.469520 -0.290550
vn -0.062889 -0.997398 -0.035258
v -0.298281 0.469520 -0.290550
vn 0.567266 0.625752 0.535391
v -0.211757 -0.436442 -0.190266
vn 0.801075 0.038538 0.597322
v -0.247726 -0.413884 -0.139419
vn 0.710860 0.149261 0.687313
v -0.183610 -0.320738 -0.166775
vn 0.397778 0.156183 0.904090
v -0.185851 0.463348 -0.316815
vn 0.381535 0.711794 0.589729
v -0.140002 -0.322271 -0.201244
vn 0.616510 0.149690 0.772987
v -0.210366 -0.414467 -0.189482
vn 0.801064 0.038301 0.597353
v -0.210366 -0.414467 -0.189482
vn 0.062989 0.997388 0.035338
v -0.183610 -0.320738 -0.166775
# 165 vertices, 0 vertices normals

f 1//1 2//2 3//3
f 2//2 1//1 4//4
f 2//2 5//5 3//3
f 6//6 1//1 3//3
f 7//7 4//4 8//8
f 9//9 10//10 2//2
f 2//2 11//11 5//5
f 3//3 5//5 12//12
f 1//1 6//6 13//13
f 3//3 12//12 6//6
f 4//4 7//7 14//14
f 15//15 16//16 7//7
f 10//10 9//9 17//17
f 10//10 11//11 2//2
f 18//18 5//5 11//11
f 19//19 12//12 5//5
f 20//20 21//21 6//6
f 16//16 15//15 21//21
f 6//6 12//12 22//22
f 23//23 14//14 7//7
f 14//14 17//17 9//9
f 24//24 7//7 25//25
f 17//17 26//26 10//10
f 10//10 27//27 11//11
f 5//5 18//18 28//28
f 11//11 29//29 18//18
f 12//12 19//19 30//30
f 21//21 20//20 31//31
f 6//6 22//22 20//20
f 13//13 32//32 16//16
f 12//12 33//33 22//22
f 34//34 14//14 23//23
f 23//23 7//7 24//24
f 17//17 14//14 35//35
f 24//24 25//25 36//36
f 26//26 17//17 37//37
f 26//26 27//27 10//10
f 29//29 11//11 27//27
f 38//38 39//39 18//18
f 40//40 18//18 41//41
f 42//42 30//30 43//43
f 33//33 12//12 44//44
f 45//45 46//46 20//20
f 32//32 13//13 46//46
f 20//20 22//22 47//47
f 36//36 25//25 32//32
f 48//48 22//22 49//49
f 34//34 35//35 14//14
f 50//50 23//23 34//34
f 51//51 24//24 23//23
f 35//35 52//52 17//17
f 53//53 36//36 24//24
f 37//37 54//54 26//26
f 26//26 55//55 27//27
f 27//27 56//56 41//41
f 39//39 38//38 42//42
f 18//18 40//40 38//38
f 41//41 57//57 40//40
f 30//30 42//42 58//58
f 44//44 59//59 33//33
f 46//46 45//45 60//60
f 20//20 47//47 45//45
f 46//46 61//61 32//32
f 22//22 48//48 47//47
f 36//36 32//32 62//62
f 63//63 64//64 48//48
f 65//65 35//35 34//34
f 23//23 50//50 51//51
f 34//34 66//66 50//50
f 24//24 51//51 53//53
f 52//52 35//35 67//67
f 36//36 53//53 68//68
f 54//54 37//37 69//69
f 54//54 55//55 26//26
f 56//56 27//27 55//55
f 57//57 41//41 56//56
f 38//38 70//70 42//42
f 71//71 72//72 38//38
f 57//57 73//73 71//71
f 42//42 74//74 58//58
f 59//59 44//44 58//58
f 64//64 63//63 59//59
f 47//47 75//75 45//45
f 61//61 46//46 60//60
f 64//64 32//32 61//61
f 75//75 47//47 76//76
f 64//64 62//62 32//32
f 68//68 62//62 36//36
f 61//61 76//76 64//64
f 77//77 35//35 65//65
f 66//66 34//34 65//65
f 78//78 79//79 51//51
f 66//66 80//80 78//78
f 51//51 81//81 53//53
f 77//77 67//67 35//35
f 67//67 82//82 37//37
f 53//53 83//83 68//68
f 82//82 84//84 54//54
f 54//54 85//85 55//55
f 55//55 86//86 87//87
f 56//56 88//88 57//57
f 38//38 89//89 70//70
f 42//42 70//70 74//74
f 71//71 73//73 72//72
f 38//38 72//72 89//89
f 57//57 90//90 73//73
f 58//58 74//74 91//91
f 58//58 91//91 59//59
f 59//59 62//62 64//64
f 76//76 61//61 75//75
f 62//62 68//68 92//92
f 93//93 65//65 94//94
f 65//65 93//93 95//95
f 78//78 80//80 79//79
f 51//51 79//79 81//81
f 66//66 96//96 80//80
f 53//53 81//81 83//83
f 97//97 67//67 77//77
f 82//82 67//67 98//98
f 68//68 83//83 99//99
f 84//84 82//82 100//100
f 84//84 85//85 54//54
f 86//86 55//55 85//85
f 88//88 56//56 86//86
f 88//88 90//90 57//57
f 79//79 101//101 70//70
f 81//81 70//70 74//74
f 96//96 102//102 72//72
f 80//80 72//72 89//89
f 103//103 90//90 102//102
f 104//104 81//81 74//74
f 59//59 91//91 105//105
f 59//59 105//105 62//62
f 68//68 99//99 92//92
f 106//106 62//62 92//92
f 94//94 107//107 93//93
f 93//93 96//96 66//66
f 101//101 79//79 80//80
f 70//70 81//81 79//79
f 72//72 80//80 96//96
f 81//81 104//104 108//108
f 97//97 98//98 67//67
f 107//107 94//94 109//109
f 98//98 100//100 82//82
f 108//108 105//105 106//106
f 100//100 110//110 84//84
f 84//84 111//111 85//85
f 85//85 112//112 86//86
f 86//86 113//113 88//88
f 88//88 114//114 90//90
f 102//102 96//96 103//103
f 90//90 103//103 115//115
f 105//105 108//108 104//104
f 62//62 106//106 105//105
f 107//107 103//103 93//93
f 93//93 103//103 96//96
f 116//116 98//98 97//97
f 109//109 117//117 107//107
f 100//100 98//98 118//118
f 110//110 100//100 119//119
f 110//110 111//111 84//84
f 112//112 85//85 111//111
f 113//113 86//86 112//112
f 120//120 114//114 88//88
f 121//121 114//114 122//122
f 107//107 115//115 103//103
f 116//116 118//118 98//98
f 117//117 109//109 116//116
f 123//123 115//115 107//107
f 118//118 124//124 100//100
f 125//125 110//110 126//126
f 110//110 127//127 111//111
f 127//127 112//112 111//111
f 112//112 128//128 113//113
f 120//120 129//129 114//114
f 114//114 121//121 130//130
f 131//131 118//118 116//116
f 116//116 132//132 117//117
f 123//123 130//130 115//115
f 124//124 118//118 133//133
f 110//110 125//125 134//134
f 124//124 135//135 125//125
f 134//134 127//127 110//110
f 112//112 127//127 136//136
f 128//128 112//112 137//137
f 128//128 138//138 120//120
f 120//120 138//138 129//129
f 130//130 129//129 114//114
f 131//131 139//139 118//118
f 132//132 116//116 131//131
f 132//132 130//130 123//123
f 135//135 124//124 133//133
f 140//140 134//134 125//125
f 141//141 125//125 135//135
f 134//134 142//142 127//127
f 142//142 136//136 127//127
f 143//143 144//144 128//128
f 128//128 145//145 138//138
f 146//146 138//138 129//129
f 129//129 130//130 146//146
f 147//147 139//139 131//131
f 147//147 132//132 131//131
f 132//132 146//146 130//130
f 148//148 135//135 139//139
f 134//134 140//140 149//149
f 125//125 141//141 150//150
f 144//144 151//151 135//135
f 149//149 142//142 134//134
f 136//136 142//142 152//152
f 144//144 143//143 152//152
f 145//145 128//128 144//144
f 153//153 145//145 138//138
f 138//138 146//146 153//153
f 148//148 139//139 147//147
f 132//132 147//147 154//154
f 154//154 146//146 132//132
f 145//145 135//135 148//148
f 155//155 149//149 140//140
f 156//156 150//150 151//151
f 151//151 144//144 157//157
f 144//144 135//135 145//145
f 142//142 149//149 158//158
f 158//158 159//159 142//142
f 159//159 156//156 144//144
f 145//145 153//153 160//160
f 154//154 153//153 146//146
f 161//161 154//154 147//147
f 145//145 162//162 148//148
f 149//149 155//155 158//158
f 150//150 156//156 163//163
f 159//159 158//158 164//164
f 156//156 159//159 164//164
f 153//153 162//162 165//165
f 162//162 145//145 160//160
f 162//162 153//153 154//154
f 154//154 161//161 162//162
# 236 faces, 0 coords texture

# End of File
