####
#
# OBJ File Generated by Meshlab
#
####
# Object cup_0097.obj
#
# Vertices: 48
# Faces: 70
#
####
vn 0.000000 -1.000000 -0.000000
v -0.119694 -0.502019 0.370221
vn 0.000000 -1.000000 -0.000000
v -0.114475 -0.502019 0.350789
vn 0.000000 -1.000000 -0.000000
v 0.182057 -0.502019 0.363489
vn 0.000000 -1.000000 -0.000000
v -0.339442 -0.502019 0.181405
vn 0.000000 -1.000000 -0.000000
v 0.347000 -0.502019 0.166088
vn 0.000000 -1.000000 -0.000000
v 0.168802 -0.502019 0.344467
vn 0.000000 -1.000000 -0.000000
v -0.303632 -0.502019 0.177289
vn 0.000000 -1.000000 -0.000000
v -0.310981 -0.502019 -0.152201
vn 0.000000 -1.000000 -0.000000
v -0.347000 -0.502019 -0.157302
vn 0.000000 -1.000000 -0.000000
v 0.326492 -0.502019 0.163236
vn 0.000000 -1.000000 -0.000000
v 0.319073 -0.502019 -0.169315
vn 0.000000 -1.000000 -0.000000
v -0.129813 -0.502019 -0.336895
vn 0.000000 -1.000000 -0.000000
v -0.136066 -0.502019 -0.363489
vn 0.000000 -1.000000 -0.000000
v 0.339442 -0.502019 -0.172612
vn 0.000000 -1.000000 -0.000000
v 0.165692 -0.502019 -0.370221
vn 0.000000 -1.000000 -0.000000
v 0.162625 -0.502019 -0.343419
vn -0.337034 -0.000000 0.941493
v -0.119694 -0.502019 0.370221
vn 0.352245 0.000000 -0.935908
v -0.114475 -0.502019 0.350789
vn 0.433634 -0.000000 0.901089
v 0.182057 -0.502019 0.363489
vn -0.904054 -0.000000 0.427419
v -0.339442 -0.502019 0.181405
vn -0.705059 0.625922 0.333338
v -0.339442 0.502019 0.181405
vn -0.260442 0.634715 0.727535
v -0.119694 0.502019 0.370221
vn 0.338569 0.624817 0.703545
v 0.182057 0.502019 0.363489
vn 0.728404 0.635885 0.255104
v 0.347000 0.502019 0.166088
vn 0.943793 -0.000000 0.330538
v 0.347000 -0.502019 0.166088
vn -0.424608 0.000000 -0.905377
v 0.168802 -0.502019 0.344467
vn -0.248789 0.810364 -0.530485
v 0.168802 0.502019 0.344467
vn 0.210662 0.801456 -0.559724
v -0.114475 0.502019 0.350789
vn 0.910864 0.000000 -0.412706
v -0.303632 -0.502019 0.177289
vn 0.538009 0.806922 -0.243768
v -0.303632 0.502019 0.177289
vn 0.550597 0.805849 0.217831
v -0.310981 0.502019 -0.152201
vn 0.929873 -0.000000 0.367882
v -0.310981 -0.502019 -0.152201
vn -0.925957 0.000000 -0.377629
v -0.347000 -0.502019 -0.157302
vn -0.940440 0.000000 -0.339959
v 0.326492 -0.502019 0.163236
vn -0.929710 -0.000000 0.368292
v 0.319073 -0.502019 -0.169315
vn 0.397388 -0.000000 0.917651
v -0.129813 -0.502019 -0.336895
vn -0.387724 0.000000 -0.921775
v -0.136066 -0.502019 -0.363489
vn -0.300137 0.633066 -0.713544
v -0.136066 0.502019 -0.363489
vn -0.720963 0.627504 -0.294027
v -0.347000 0.502019 -0.157302
vn -0.566732 0.798025 -0.204868
v 0.326492 0.502019 0.163236
vn 0.717779 0.637549 -0.279866
v 0.339442 0.502019 -0.172612
vn 0.931685 0.000000 -0.363268
v 0.339442 -0.502019 -0.172612
vn -0.564840 0.794286 0.223754
v 0.319073 0.502019 -0.169315
vn -0.230521 0.814131 0.532964
v 0.162625 0.502019 -0.343419
vn 0.314314 0.623271 -0.716058
v 0.165692 0.502019 -0.370221
vn 0.401933 0.000000 -0.915669
v 0.165692 -0.502019 -0.370221
vn -0.396983 -0.000000 0.917826
v 0.162625 -0.502019 -0.343419
vn 0.237089 0.802525 0.547487
v -0.129813 0.502019 -0.336895
# 48 vertices, 0 vertices normals

f 1//1 2//2 3//3
f 2//2 1//1 4//4
f 3//3 6//6 5//5
f 6//6 3//3 2//2
f 7//7 9//9 8//8
f 7//7 4//4 9//9
f 2//2 4//4 7//7
f 7//7 6//6 2//2
f 6//6 7//7 10//10
f 10//10 7//7 8//8
f 10//10 8//8 11//11
f 11//11 8//8 12//12
f 8//8 9//9 12//12
f 12//12 9//9 13//13
f 5//5 10//10 14//14
f 5//5 6//6 10//10
f 14//14 16//16 15//15
f 14//14 11//11 16//16
f 14//14 10//10 11//11
f 15//15 16//16 13//13
f 12//12 13//13 16//16
f 11//11 12//12 16//16
f 17//17 21//21 20//20
f 21//21 17//17 22//22
f 17//17 23//23 22//22
f 23//23 17//17 19//19
f 19//19 24//24 23//23
f 24//24 19//19 25//25
f 18//18 27//27 26//26
f 27//27 18//18 28//28
f 29//29 28//28 18//18
f 28//28 29//29 30//30
f 29//29 31//31 30//30
f 31//31 29//29 32//32
f 33//33 38//38 37//37
f 38//38 33//33 39//39
f 33//33 21//21 39//39
f 21//21 33//33 20//20
f 21//21 30//30 39//39
f 21//21 28//28 30//30
f 22//22 28//28 21//21
f 28//28 22//22 27//27
f 23//23 27//27 22//22
f 27//27 23//23 24//24
f 27//27 24//24 40//40
f 40//40 24//24 41//41
f 25//25 41//41 24//24
f 41//41 25//25 42//42
f 27//27 34//34 26//26
f 34//34 27//27 40//40
f 40//40 35//35 34//34
f 35//35 40//40 43//43
f 40//40 41//41 43//43
f 43//43 41//41 44//44
f 44//44 41//41 45//45
f 41//41 46//46 45//45
f 46//46 41//41 42//42
f 43//43 47//47 35//35
f 47//47 43//43 44//44
f 44//44 36//36 47//47
f 36//36 44//44 48//48
f 44//44 45//45 48//48
f 38//38 48//48 45//45
f 39//39 48//48 38//38
f 39//39 31//31 48//48
f 39//39 30//30 31//31
f 31//31 36//36 48//48
f 36//36 31//31 32//32
f 45//45 37//37 38//38
f 37//37 45//45 46//46
# 70 faces, 0 coords texture

# End of File
